<?xml version="1.0" encoding="utf-8"?>
<!-- Generator: Adobe Illustrator 24.1.2, SVG Export Plug-In . SVG Version: 6.00 Build 0)  -->
<svg version="1.1" id="Layer_1" xmlns="http://www.w3.org/2000/svg" xmlns:xlink="http://www.w3.org/1999/xlink" x="0px" y="0px"
	 viewBox="0 0 141.08 49.34" style="enable-background:new 0 0 141.08 49.34;" xml:space="preserve">
<style type="text/css">
	.st0{fill:url(#SVGID_1_);}
</style>
<g id="Layer_2_1_">
	<g id="Layer_1-2">
		
			<linearGradient id="SVGID_1_" gradientUnits="userSpaceOnUse" x1="0" y1="133.33" x2="141.08" y2="133.33" gradientTransform="matrix(1 0 0 -1 0 158)">
			<stop  offset="0.02" style="stop-color:#1EBCBA"/>
			<stop  offset="1" style="stop-color:#2D1DFF"/>
		</linearGradient>
		<path class="st0" d="M141.08,36.83v12.51c-20.92,0-31.14-10.94-40.16-20.59c-0.73-0.79-1.46-1.56-2.19-2.33v14.31H86.22V16.08
			c-2.94-1.55-6.13-2.59-9.42-3.08v36.1H64.29v-36c-3.29,0.56-6.47,1.65-9.42,3.21v24.42H42.35V26.31c-0.93,0.93-1.85,1.89-2.8,2.86
			C30.4,38.62,20.02,49.34,0,49.34V36.83c14.72,0,22.06-7.58,30.57-16.36C39.87,10.87,50.4,0,70.98,0
			c20.2,0,30.23,10.74,39.08,20.21C118.35,29.13,125.59,36.83,141.08,36.83z M140.59,12.59V0.08c-12.87,0-23.68,3.72-30.45,10.49
			l8.85,8.84C123.35,15.08,131.2,12.59,140.59,12.59L140.59,12.59z M30.46,10.59C23.7,3.8,12.89,0.08,0.01,0.08v12.51
			c9.26,0,17.34,2.55,21.61,6.82L30.46,10.59z"/>
	</g>
</g>
</svg>
